<?xml version="1.0" standalone="no"?><!DOCTYPE svg PUBLIC "-//W3C//DTD SVG 1.1//EN" "http://www.w3.org/Graphics/SVG/1.1/DTD/svg11.dtd"><svg t="1711854479255" class="icon" viewBox="0 0 1024 1024" version="1.1" xmlns="http://www.w3.org/2000/svg" p-id="1220" xmlns:xlink="http://www.w3.org/1999/xlink" width="200" height="200"><path d="M505.969081 505.969081m-376.197925 0a376.197925 376.197925 0 1 0 752.39585 0 376.197925 376.197925 0 1 0-752.39585 0Z" fill="#91BFCC" p-id="1221"></path><path d="M505.969081 150.432063c196.043081 0 355.537018 159.498069 355.537018 355.537018 0 196.043081-159.493937 355.537018-355.537018 355.537018-196.038949 0-355.537018-159.493937-355.537018-355.537018s159.489805-355.537018 355.537018-355.537018z m-396.858832 355.537018c0 218.827929 178.030903 396.858832 396.858832 396.858832s396.858832-178.030903 396.858832-396.858832c0-218.823797-178.030903-396.858832-396.858832-396.858832S109.110249 287.145284 109.110249 505.969081z" fill="#6E6E96" p-id="1222"></path><path d="M476.824806 480.956987m-301.599655 0a301.599655 301.599655 0 1 0 603.19931 0 301.599655 301.599655 0 1 0-603.19931 0Z" fill="#9ED0DF" p-id="1223"></path><path d="M637.930294 172.051636c146.060215-97.986417 266.90586-134.828946 307.88057-93.854236 60.540589 60.540589-50.156418 306.161583-305.797951 561.815513-255.649798 255.637401-501.270791 366.334408-561.819645 305.793819-40.970578-40.966446-4.128049-161.816223 93.8625-307.880571l-34.317766-23.01625c-114.544068 170.729338-146.890784 301.98808-88.763388 360.115475 45.635811 45.631679 134.258705 36.379725 256.286153-26.760006 113.469701-58.705901 242.728466-157.799743 363.966668-279.037945 121.238202-121.246466 220.332043-250.5011 279.042077-363.9708 63.135599-122.027448 72.391686-210.654475 26.755874-256.282021-58.127395-58.127395-189.386137-25.78068-360.111343 88.759256l23.016251 34.317766z" fill="#6E6E96" p-id="1224"></path><path d="M720.677226 368.06166m-57.85054 0a57.850539 57.850539 0 1 0 115.701079 0 57.850539 57.850539 0 1 0-115.701079 0Z" fill="#91BFCC" p-id="1225"></path><path d="M330.87616 716.545044m-45.453996 0a45.453995 45.453995 0 1 0 90.907991 0 45.453995 45.453995 0 1 0-90.907991 0Z" fill="#91BFCC" p-id="1226"></path><path d="M387.34655 434.176562m-35.813616 0a35.813616 35.813616 0 1 0 71.627232 0 35.813616 35.813616 0 1 0-71.627232 0Z" fill="#91BFCC" p-id="1227"></path><path d="M545.749591 578.807042m-20.660906 0a20.660907 20.660907 0 1 0 41.321813 0 20.660907 20.660907 0 1 0-41.321813 0Z" fill="#91BFCC" p-id="1228"></path><path d="M475.498376 288.174197m-38.565649 0a38.565649 38.565649 0 1 0 77.131298 0 38.565649 38.565649 0 1 0-77.131298 0Z" fill="#91BFCC" p-id="1229"></path><path d="M235.835988 497.539431m-8.264363 0a8.264363 8.264363 0 1 0 16.528726 0 8.264363 8.264363 0 1 0-16.528726 0Z" fill="#91BFCC" p-id="1230"></path><path d="M687.619775 489.275068m-8.264363 0a8.264363 8.264363 0 1 0 16.528726 0 8.264363 8.264363 0 1 0-16.528726 0Z" fill="#91BFCC" p-id="1231"></path><path d="M388.726699 325.367962m-12.396544 0a12.396544 12.396544 0 1 0 24.793088 0 12.396544 12.396544 0 1 0-24.793088 0Z" fill="#91BFCC" p-id="1232"></path><path d="M625.637054 289.550214m-12.396544 0a12.396544 12.396544 0 1 0 24.793088 0 12.396544 12.396544 0 1 0-24.793088 0Z" fill="#91BFCC" p-id="1233"></path><path d="M544.373575 450.705287m-16.528725 0a16.528726 16.528726 0 1 0 33.057451 0 16.528726 16.528726 0 1 0-33.057451 0Z" fill="#91BFCC" p-id="1234"></path><path d="M359.797297 591.203587m-11.020528 0a11.020528 11.020528 0 1 0 22.041056 0 11.020528 11.020528 0 1 0-22.041056 0Z" fill="#91BFCC" p-id="1235"></path></svg>